<svg xmlns="http://www.w3.org/2000/svg" viewBox="0 0 395.52 58.536659652246676" height="58.536659652246676" width="395.52">
      <g>
        <svg viewBox="0 0 485.2037672347408 71.8097890994335" height="58.536659652246676" width="395.52">
          <g transform="matrix(1,0,0,1,89.6837672347408,1.2643788239890696)">
            <svg viewBox="0 0 395.52 69.28103145145536" height="69.28103145145536" width="395.52">
              <g id="textblocktransform">
                <svg viewBox="0 0 395.52 69.28103145145536" height="69.28103145145536" width="395.52" id="textblock">
                  <g>
                    <svg viewBox="0 0 395.52 69.28103145145536" height="69.28103145145536" width="395.52">
                      <g transform="matrix(1,0,0,1,0,0)">
                        <svg width="395.52" viewBox="4 -39.95000076293945 230.3350067138672 40.35000228881836" height="69.28103145145536" data-palette-color="#bb84e8">
                          <path d="M13.3-22.85L22.95-22.85Q24.25-22.85 25.65-22.3 27.05-21.75 28.35-20.85L28.35-20.85 28.3-20.85Q29.6-19.95 30.3-18.4 31-16.85 31-14.85L31-14.85 31-8Q31-3.95 28.3-1.95L28.3-1.95Q27-1 25.63-0.48 24.25 0.05 22.95 0.05L22.95 0.05 12.05 0.05Q10.75 0.05 9.38-0.48 8-1 6.7-1.95L6.7-1.95Q4-3.95 4-8L4-8 4-11.3Q4-13.65 6.95-13.65L6.95-13.65Q9.95-13.65 9.95-11.3L9.95-11.3 9.95-8.4Q9.95-7.1 10.7-6.05 11.45-5 13.3-5L13.3-5 21.7-5Q23.55-5 24.3-6.05 25.05-7.1 25.05-8.4L25.05-8.4 25.05-14.45Q25.05-15.7 24.3-16.78 23.55-17.85 21.7-17.85L21.7-17.85 12.05-17.85Q9.45-17.85 6.7-19.75L6.7-19.75Q4-21.85 4-25.8L4-25.8 4-31.75Q4-33.75 4.7-35.27 5.4-36.8 6.7-37.75L6.7-37.75 6.65-37.75Q7.95-38.6 9.35-39.15 10.75-39.7 12.05-39.7L12.05-39.7 22.95-39.7Q24.25-39.7 25.65-39.15 27.05-38.6 28.35-37.75L28.35-37.75 28.3-37.75Q29.6-36.8 30.3-35.27 31-33.75 31-31.75L31-31.75 31-28.8Q31-26.45 28-26.45L28-26.45Q25.05-26.45 25.05-28.8L25.05-28.8 25.05-31.3Q25.05-32.55 24.3-33.6 23.55-34.65 21.7-34.65L21.7-34.65 13.3-34.65Q11.45-34.65 10.7-33.6 9.95-32.55 9.95-31.3L9.95-31.3 9.95-26.2Q9.95-24.9 10.7-23.88 11.45-22.85 13.3-22.85L13.3-22.85ZM60.35 0.05L42.05 0.05Q40.2 0.05 39.55-0.9 38.9-1.85 38.9-3L38.9-3 38.9-36.7Q38.9-37.85 39.55-38.78 40.2-39.7 42.05-39.7L42.05-39.7 59.45-39.7Q61.3-39.7 61.4-37.2L61.4-37.2Q61.5-34.65 59.45-34.65L59.45-34.65 44.8-34.65 44.8-5 60.35-5Q62.2-5 62.25-2.55L62.25-2.55Q62.35 0.05 60.35 0.05L60.35 0.05ZM57.6-20.65L57.6-20.65Q57.6-18.9 56.37-17.7 55.15-16.5 53.4-16.5L53.4-16.5Q51.7-16.5 50.5-17.7 49.3-18.9 49.3-20.65L49.3-20.65Q49.3-22.4 50.5-23.6 51.7-24.8 53.4-24.8L53.4-24.8Q55.15-24.8 56.37-23.6 57.6-22.4 57.6-20.65ZM89.8-10.5L89.8-37.55Q89.8-39.95 92.75-39.95L92.75-39.95Q95.7-39.95 95.7-37.55L95.7-37.55 95.7-3.05Q95.7-1.3 93.85-0.5L93.85-0.5 93.9-0.5Q93.1-0.15 92.2 0.05 91.3 0.25 90.45 0.25L90.45 0.25Q89.8 0.25 89.1 0.13 88.4 0 87.77-0.28 87.15-0.55 86.62-1.03 86.1-1.5 85.8-2.2L85.8-2.2 74.95-29.25 73.6-29.1 73.6-2.1Q73.6 0.3 70.6 0.3L70.6 0.3Q67.65 0.3 67.65-2.1L67.65-2.1 67.65-36.55Q67.65-38.6 69.45-39.3L69.45-39.3Q71.1-39.95 72.95-39.95L72.95-39.95Q74.25-39.95 75.57-39.43 76.9-38.9 77.6-37.45L77.6-37.45 88.4-10.35 89.8-10.5ZM116.49-34.65L116.49-2Q116.49 0.4 113.49 0.4L113.49 0.4Q110.54 0.4 110.54-2L110.54-2 110.54-34.65 101.79-34.65Q99.99-34.65 99.89-37.2L99.89-37.2Q99.89-39.7 101.79-39.7L101.79-39.7 125.24-39.7Q127.14-39.7 127.04-37.2L127.04-37.2Q127.04-34.65 125.24-34.65L125.24-34.65 116.49-34.65ZM137.64-37.55L137.64-2.1Q137.64 0.3 134.64 0.3L134.64 0.3Q131.69 0.3 131.69-2.1L131.69-2.1 131.69-37.55Q131.69-39.95 134.64-39.95L134.64-39.95Q137.64-39.95 137.64-37.55L137.64-37.55ZM167.79-10.5L167.79-37.55Q167.79-39.95 170.74-39.95L170.74-39.95Q173.69-39.95 173.69-37.55L173.69-37.55 173.69-3.05Q173.69-1.3 171.84-0.5L171.84-0.5 171.89-0.5Q171.09-0.15 170.19 0.05 169.29 0.25 168.44 0.25L168.44 0.25Q167.79 0.25 167.09 0.13 166.39 0 165.76-0.28 165.14-0.55 164.61-1.03 164.09-1.5 163.79-2.2L163.79-2.2 152.94-29.25 151.59-29.1 151.59-2.1Q151.59 0.3 148.59 0.3L148.59 0.3Q145.64 0.3 145.64-2.1L145.64-2.1 145.64-36.55Q145.64-38.6 147.44-39.3L147.44-39.3Q149.09-39.95 150.94-39.95L150.94-39.95Q152.24-39.95 153.56-39.43 154.89-38.9 155.59-37.45L155.59-37.45 166.39-10.35 167.79-10.5ZM202.64 0.05L184.34 0.05Q182.49 0.05 181.84-0.9 181.19-1.85 181.19-3L181.19-3 181.19-36.7Q181.19-37.85 181.84-38.78 182.49-39.7 184.34-39.7L184.34-39.7 201.74-39.7Q203.59-39.7 203.69-37.2L203.69-37.2Q203.79-34.65 201.74-34.65L201.74-34.65 187.09-34.65 187.09-5 202.64-5Q204.49-5 204.54-2.55L204.54-2.55Q204.64 0.05 202.64 0.05L202.64 0.05ZM199.89-20.65L199.89-20.65Q199.89-18.9 198.66-17.7 197.44-16.5 195.69-16.5L195.69-16.5Q193.99-16.5 192.79-17.7 191.59-18.9 191.59-20.65L191.59-20.65Q191.59-22.4 192.79-23.6 193.99-24.8 195.69-24.8L195.69-24.8Q197.44-24.8 198.66-23.6 199.89-22.4 199.89-20.65ZM232.53 0.05L213.08 0.05Q211.23 0.05 210.58-0.9 209.93-1.85 209.93-3L209.93-3 209.93-37.55Q209.93-39.95 212.83-39.95L212.83-39.95Q215.83-39.95 215.83-37.55L215.83-37.55 215.83-5 232.53-5Q234.33-5 234.33-2.55L234.33-2.55Q234.43 0.05 232.53 0.05L232.53 0.05Z" opacity="1" transform="matrix(1,0,0,1,0,0)" fill="#bb84e8" class="wordmark-text-0" data-fill-palette-color="primary" id="text-0"/>
                        </svg>
                      </g>
                    </svg>
                  </g>
                </svg>
              </g>
            </svg>
          </g>
          <g>
            <svg viewBox="0 0 73.32817845380703 71.8097890994335" height="71.8097890994335" width="73.32817845380703">
              <g>
                <svg xmlns="http://www.w3.org/2000/svg" xmlns:xlink="http://www.w3.org/1999/xlink" version="1.1" x="8" y="0" viewBox="18.009998321533203 9.190999984741211 64.10699462890625 80.30099487304688" enable-background="new 0 0 100 100" xml:space="preserve" height="71.8097890994335" width="57.32817845380702" class="icon-icon-0" data-fill-palette-color="accent" id="icon-0">
                  <g fill="#35185a" data-fill-palette-color="accent">
                    <path fill="#35185a" d="M75.795 9.191H24.331c-3.485 0-6.321 2.836-6.321 6.321v67.658c0 3.486 2.836 6.322 6.321 6.322h51.464c3.486 0 6.322-2.836 6.322-6.322V15.513C82.117 12.027 79.281 9.191 75.795 9.191zM78.346 83.171c0 1.406-1.145 2.551-2.551 2.551H24.331c-1.407 0-2.551-1.145-2.551-2.551V15.513c0-1.406 1.144-2.551 2.551-2.551h51.464c1.406 0 2.551 1.145 2.551 2.551V83.171z" data-fill-palette-color="accent"/>
                    <rect x="24.331" y="48.785" fill="#35185a" width="51.464" height="3.771" data-fill-palette-color="accent"/>
                    <rect x="24.331" y="56.105" fill="#35185a" width="51.464" height="3.771" data-fill-palette-color="accent"/>
                    <rect x="24.331" y="63.426" fill="#35185a" width="51.464" height="3.771" data-fill-palette-color="accent"/>
                    <rect x="24.331" y="70.745" fill="#35185a" width="51.464" height="3.771" data-fill-palette-color="accent"/>
                    <rect x="24.331" y="78.065" fill="#35185a" width="51.464" height="3.771" data-fill-palette-color="accent"/>
                    <path fill="#35185a" d="M40.679 39.072c0.479 0 0.824-0.14 1.036-0.42 0.21-0.28 0.466-0.82 0.764-1.62l0.765-2.052h6.502l0.765 2.008c0.102 0.247 0.224 0.533 0.365 0.856 0.142 0.324 0.275 0.564 0.398 0.721 0.125 0.156 0.277 0.279 0.459 0.371 0.182 0.091 0.4 0.136 0.654 0.136 0.438 0 0.811-0.154 1.119-0.464 0.309-0.309 0.463-0.648 0.463-1.02 0-0.356-0.162-0.928-0.49-1.714l-4.179-10.322c-0.196-0.517-0.358-0.93-0.485-1.238-0.128-0.31-0.284-0.599-0.47-0.868-0.186-0.269-0.43-0.489-0.731-0.66s-0.678-0.256-1.129-0.256c-0.444 0-0.816 0.085-1.119 0.256-0.302 0.171-0.545 0.395-0.73 0.672-0.186 0.276-0.36 0.623-0.523 1.041-0.164 0.419-0.305 0.777-0.421 1.075l-4.092 10.389c-0.167 0.414-0.288 0.738-0.36 0.971-0.072 0.233-0.109 0.458-0.109 0.677 0 0.379 0.156 0.717 0.47 1.015C39.911 38.923 40.271 39.072 40.679 39.072zM46.461 25.945l2.412 6.602h-4.78L46.461 25.945z" data-fill-palette-color="accent"/>
                    <path fill="#35185a" d="M58.084 39.072c0.486 0 0.881-0.163 1.184-0.491 0.301-0.327 0.453-0.821 0.453-1.483V24.494c0-0.662-0.152-1.155-0.453-1.479-0.303-0.323-0.697-0.485-1.184-0.485-0.473 0-0.859 0.163-1.156 0.491-0.299 0.327-0.449 0.817-0.449 1.473v12.604c0 0.654 0.152 1.147 0.453 1.479C57.234 38.907 57.617 39.072 58.084 39.072z" data-fill-palette-color="accent"/>
                  </g>
                </svg>
              </g>
            </svg>
          </g>
        </svg>
      </g>
      <defs/>
    </svg>